<?xml version="1.0" encoding="utf-8"?>
<!-- Generator: Adobe Illustrator 25.4.1, SVG Export Plug-In . SVG Version: 6.00 Build 0)  -->
<svg version="1.1" xmlns="http://www.w3.org/2000/svg" xmlns:xlink="http://www.w3.org/1999/xlink" x="0px" y="0px"
	 viewBox="0 0 500 500" style="enable-background:new 0 0 500 500;" xml:space="preserve">
<style type="text/css">
	.st0{fill:#171715;}
</style>
<g id="Capa_1">
</g>
<g id="Capa_2">
</g>
<g id="Capa_3">
</g>
<g id="Capa_4">
</g>
<g id="Capa_5">
	<g>
		<path class="st0" d="M250,6.17c-138.05,0-250,111.93-250,250C0,366.63,71.63,460.34,170.97,493.4
			c12.49,2.31,17.08-5.42,17.08-12.03c0-5.96-0.23-25.66-0.34-46.55c-69.55,15.12-84.23-29.5-84.23-29.5
			c-11.37-28.9-27.76-36.58-27.76-36.58c-22.68-15.52,1.71-15.2,1.71-15.2c25.1,1.76,38.32,25.76,38.32,25.76
			c22.3,38.22,58.48,27.17,72.75,20.78c2.24-16.16,8.72-27.19,15.87-33.43c-55.53-6.32-113.9-27.76-113.9-123.55
			c0-27.29,9.77-49.6,25.76-67.1c-2.6-6.3-11.15-31.72,2.42-66.16c0,0,20.99-6.72,68.77,25.63c19.94-5.54,41.33-8.32,62.57-8.41
			c21.25,0.09,42.65,2.87,62.63,8.41c47.72-32.35,68.68-25.63,68.68-25.63c13.61,34.44,5.05,59.86,2.45,66.16
			c16.03,17.51,25.73,39.81,25.73,67.1c0,96.02-58.48,117.16-114.15,123.35c8.97,7.76,16.96,22.97,16.96,46.3
			c0,33.45-0.29,60.37-0.29,68.61c0,6.65,4.5,14.45,17.17,11.99C428.46,460.27,500,366.59,500,256.17
			C500,118.1,388.07,6.17,250,6.17"/>
	</g>
</g>
<g id="Capa_6">
</g>
</svg>
